<svg width="120" height="120" viewBox="0 0 120 120" fill="none" xmlns="http://www.w3.org/2000/svg">
<path d="M16.0554 30.375H32.8522C32.8522 30.375 35.2894 31.2169 36.2701 32.4257C37.3725 33.7845 37.5507 34.9729 37.5396 36.7226C37.5288 38.4358 37.2955 39.7447 36.2701 41.1171C35.3014 42.4137 32.8522 43.2655 32.8522 43.2655H16.0554C16.0554 43.2655 13.4413 43.006 12.1488 41.5077C10.997 40.1725 10.0139 38.3883 10.0002 36.6249C9.98613 34.8261 10.9339 33.3618 12.1488 32.0351C13.4512 30.6129 16.0554 30.375 16.0554 30.375Z" fill="black"/>
<path d="M101.603 30.375H105.144C105.144 30.375 107.669 31.2169 108.684 32.4257C109.826 33.7845 110.011 34.9729 110 36.7226C109.988 38.4358 109.747 39.7447 108.684 41.1171C107.681 42.4137 105.144 43.2655 105.144 43.2655H101.603V30.375Z" fill="black"/>
<path d="M27.1878 47.3671H37.5393V82.2302C37.5393 82.2302 38.4644 85.4665 40.1761 87.2107C41.6217 88.6838 44.8635 89.6521 44.8635 89.6521H81.9728V95.3161C81.9728 95.3161 81.3772 96.902 80.6056 97.5622C79.8928 98.172 78.3595 98.5388 78.3595 98.5388H30.7034C30.7034 98.5388 28.7217 98.0232 27.9691 97.0739C27.1876 96.0882 27.1878 93.9489 27.1878 93.9489V47.3671Z" fill="black"/>
<path d="M89.1016 21C89.1016 21 92.6275 21.8236 94.2774 23.832C95.7746 25.6545 96.7188 29.3984 96.7188 29.3984V78.617C96.7188 78.617 97.2624 82.1021 95.9376 83.7927C94.4085 85.7439 89.9805 85.6482 89.9805 85.6482H49.551C49.551 85.6482 45.2636 85.7956 43.6917 83.7927C42.186 81.8743 42.8128 77.5672 42.8128 77.5672V37.162C42.8128 37.162 41.7973 31.8284 39.5901 29.3984C37.4557 27.0485 32.4612 25.4922 32.4612 25.4922H27.3831C27.3831 25.4922 27.4271 23.1501 28.3597 22.1719C29.1613 21.331 31.0941 21 31.0941 21H89.1016Z" fill="black"/>
</svg>
