<svg width="120" height="120" viewBox="0 0 120 120" fill="none" xmlns="http://www.w3.org/2000/svg">
<path fill-rule="evenodd" clip-rule="evenodd" d="M52.6211 27.9168C52.6211 27.9168 49.3604 29.422 47.8574 31.0608C46.1705 32.9002 45.0002 36.7594 45.0002 36.7594V45.6019H75.8809L76 36.7594C76 36.7594 74.447 32.9054 72.6255 31.0608C71.0626 29.4781 67.8624 27.9168 67.8624 27.9168H52.6211ZM66.9103 27.288V21.9432L65.6401 21H54.5262L53.5736 21.9432V27.288H66.9103ZM45 67.4135L45.0001 47.4097H75.8396L75.5872 67.4135H45ZM75.5316 69.1034H45.0002V90.1683C45.0002 90.1683 45.3171 94.4519 46.2697 95.7096C47.9808 97.9686 51.3503 98.6571 51.3503 98.6571C51.3503 98.6571 55.5754 99.6081 57.7011 98.3427C58.2604 98.0098 58.4973 97.4471 58.7167 96.9261C59.0112 96.2268 59.2741 95.6025 60.2421 95.7096C61.1029 95.8048 61.4822 96.392 61.8894 97.0223C62.2006 97.5042 62.5281 98.0112 63.0993 98.3427C65.132 99.5224 68.8157 98.6571 68.8157 98.6571C68.8157 98.6571 73.0587 98.192 74.2132 95.7096C74.9588 94.1063 75.4046 90.1683 75.4046 90.1683V80.972L75.5316 69.1034Z" fill="black"/>
<path d="M56.0948 58.695C56.2597 56.4885 59.2097 53.1272 61.0037 51.5011C62.4262 53.2469 64.8138 57.1154 64.6488 59.322C64.4838 61.5286 62.4352 63.177 60.0731 63.0039C57.711 62.8308 55.9298 60.9016 56.0948 58.695Z" fill="white"/>
</svg>
