<svg width="120" height="120" viewBox="0 0 120 120" fill="none" xmlns="http://www.w3.org/2000/svg">
<path d="M74.3828 24.3013C78.8681 23.5138 84.2643 22.6073 87.8843 30.6949C90.8631 37.3501 84.3842 43.3013 84.3842 43.3013C84.3842 43.3013 82.1275 43.4589 80 40.3013C77.357 36.3787 84.0487 34.4763 81 30.6949C79.3635 28.6651 78.7908 29.3788 77.5 29.3013C76.5372 29.2435 74.8828 31.8013 74.8828 31.8013L70.3837 40.8013L54 84.3013L48.5636 94.0603C48.5636 94.0603 43.7591 104.836 37.7348 97C34.5457 92.8517 34.5003 82.818 34.5003 82.818L46.385 65.8006L62.98 38.9701L67.5339 30.6942L70.3837 26.3011C70.3837 26.3011 72.4618 24.6385 74.3828 24.3013Z" fill="black"/>
</svg>
