<svg width="120" height="120" viewBox="0 0 120 120" fill="none" xmlns="http://www.w3.org/2000/svg">
<path d="M22.1749 50.5969C23.0092 48.502 25.1015 46.5985 28.4386 44.3145C36.7686 38.6133 43.6014 41.5416 53.4881 38.0312C62.3361 34.8896 62.2356 31.4847 68.7961 29.6533C79.3199 26.7155 88.388 27.721 96.6289 32.4459C101.5 35.2385 102.597 38.7289 100.803 42.2197C99.2962 45.1522 92.4499 46.4101 92.4499 46.4101C92.4499 46.4101 77.7933 50.1815 70.1871 53.39C63.6887 56.1313 58.8399 60.407 52.0958 62.466C46.0659 64.3069 40.2634 63.1657 40.2634 63.1657C40.2634 63.1657 26.0611 62.9091 22.8725 57.5792C21.1925 54.771 21.8002 51.5379 22.1749 50.5969Z" fill="black"/>
<path d="M22.1036 59.7478L22.575 71.8771C22.575 71.8771 25.1919 79.7709 37.5983 80.8897C46.7567 81.7156 56.2702 79.2209 56.2702 79.2209L71.6345 69.5794L83.4483 65.3548C83.4483 65.3548 94.5001 64.1526 98.7274 60.3996C100.725 58.6264 101.418 55.667 101.418 55.667L101.501 51.0829L102.338 43.037C102.338 43.037 100.594 44.9536 99.6854 45.6588C97.1786 47.6035 92.0441 48.4734 92.0441 48.4734C92.0441 48.4734 77.431 52.3473 69.8256 55.5577C63.3278 58.3005 58.4406 62.4858 51.7109 64.5786C45.6939 66.4498 39.9546 65.4574 39.9546 65.4574C39.9546 65.4574 25.1755 64.8027 22.1036 59.7478Z" fill="black"/>
<path d="M22.1749 61.7671L26.3498 74.3338L46.5286 78.5227L81.3196 64.5597L97.3235 59.6727L101.498 51.2951C101.498 51.2951 102.624 52.6438 102.89 54.0875C103.137 55.4279 102.89 56.8803 102.89 56.8803V63.8617C102.89 63.8617 101.427 68.5553 98.7151 70.8431C95.2287 73.7844 90.9897 72.3498 86.8862 74.3338C84.9126 75.288 84.0507 76.313 82.0154 77.1264C79.688 78.0565 78.7297 77.4828 76.4489 78.5227C74.3207 79.493 73.0084 81.0387 70.8823 82.0134C68.8442 82.9478 67.203 82.8958 65.3158 84.1079C63.5283 85.2559 63.5021 86.2787 61.8367 87.5986C59.5401 89.4188 54.8785 90.3912 54.8785 90.3912C54.8785 90.3912 39.2064 94.8131 28.4373 88.9949C19.3916 84.1079 18.6958 77.8246 18.6958 77.8246L18 69.4468C18 69.4468 18.2567 66.1154 19.3916 64.5597C20.3275 63.2769 22.1749 61.7671 22.1749 61.7671Z" fill="black"/>
</svg>
