<svg width="120" height="120" viewBox="0 0 120 120" fill="none" xmlns="http://www.w3.org/2000/svg">
<path d="M18 36.0004L50.4132 20.0005L58.3511 32.0417L50.4132 45.4024V56.7838H36.8526V54.9694L28.7493 58.5982L18 36.0004Z" fill="black"/>
<path d="M71.2487 20L103 35.3401L92.7473 58.5977L84.4786 54.9689L84.4786 56.7838L55.209 56.7838L55.209 46.722L71.2487 20Z" fill="black"/>
<path d="M36.8526 61.7322H50.4132V66.6806H36.8526V61.7322Z" fill="black"/>
<path d="M36.8526 71.629H50.4132V100H36.8526V71.629Z" fill="black"/>
<path d="M55.0437 71.629H62.1547L59.8395 77.2373L64.1392 79.0517L67.4467 71.629H68.7697L74.7231 87.464L79.519 85.6496L74.0616 71.629H84.4802V100H55.0437V71.629Z" fill="black"/>
<path d="M55.0437 61.7322H66.6198L64.3046 66.6806H55.0437V61.7322Z" fill="black"/>
<path d="M84.4905 66.6806H71.9118L70.258 61.7322H84.4803L84.4905 66.6806Z" fill="black"/>
</svg>
