<?xml version="1.0" standalone="no"?>
<!DOCTYPE svg PUBLIC "-//W3C//DTD SVG 20010904//EN"
 "http://www.w3.org/TR/2001/REC-SVG-20010904/DTD/svg10.dtd">
<svg version="1.0" xmlns="http://www.w3.org/2000/svg"
 width="512.000000pt" height="512.000000pt" viewBox="0 0 512.000000 512.000000"
 preserveAspectRatio="xMidYMid meet">

<g transform="translate(0.000000,512.000000) scale(0.100000,-0.100000)"
fill="#000000" stroke="none">
<path d="M1045 5026 c-22 -7 -184 -104 -360 -217 -271 -172 -333 -216 -401
-284 -67 -67 -90 -99 -127 -176 -89 -180 -97 -323 -33 -571 187 -728 554
-1426 1057 -2013 124 -145 425 -448 567 -569 599 -515 1297 -883 2031 -1072
247 -64 390 -56 570 33 155 75 216 145 447 508 105 165 201 320 213 344 63
123 17 287 -102 359 -17 11 -286 116 -597 233 -604 227 -639 237 -725 207 -22
-8 -135 -75 -250 -149 -116 -75 -226 -142 -245 -150 -55 -22 -156 -17 -210 11
-182 93 -523 363 -761 600 -231 230 -510 583 -598 757 -28 57 -36 136 -18 194
8 25 76 141 151 257 75 117 143 230 151 253 33 92 30 101 -201 718 -118 317
-225 591 -235 608 -65 106 -205 157 -324 119z"/>
<path d="M2707 5030 c-76 -23 -137 -108 -137 -192 0 -59 35 -125 87 -162 38
-26 51 -29 175 -37 179 -11 320 -34 458 -74 566 -164 1026 -591 1233 -1145 67
-179 100 -349 116 -583 8 -130 10 -142 37 -180 82 -115 247 -114 329 2 30 43
30 43 29 179 -3 477 -200 1001 -516 1377 -288 342 -627 573 -1043 710 -258 86
-653 139 -768 105z"/>
<path d="M2700 4218 c-49 -17 -107 -79 -121 -130 -24 -91 16 -191 95 -231 28
-15 71 -23 151 -29 267 -19 485 -114 672 -291 202 -192 310 -426 332 -719 8
-102 12 -124 34 -157 64 -96 192 -117 291 -48 16 11 40 45 54 75 23 52 24 61
18 160 -44 677 -521 1226 -1177 1353 -124 24 -302 32 -349 17z"/>
<path d="M2707 3410 c-113 -34 -170 -175 -114 -281 35 -65 89 -99 175 -109
158 -17 234 -94 252 -254 14 -125 98 -201 213 -194 102 7 174 81 185 188 7 72
-24 204 -70 299 -57 120 -170 232 -288 289 -124 60 -274 86 -353 62z"/>
</g>
</svg>
