<?xml version="1.0" standalone="no"?>
<!DOCTYPE svg PUBLIC "-//W3C//DTD SVG 20010904//EN"
 "http://www.w3.org/TR/2001/REC-SVG-20010904/DTD/svg10.dtd">
<svg version="1.0" xmlns="http://www.w3.org/2000/svg"
 width="512.000000pt" height="512.000000pt" viewBox="0 0 512.000000 512.000000"
 preserveAspectRatio="xMidYMid meet">

<g transform="translate(0.000000,512.000000) scale(0.100000,-0.100000)"
fill="#000000" stroke="none">
<path d="M1600 4785 c-86 -24 -247 -108 -342 -180 -147 -111 -334 -308 -465
-490 -55 -75 -133 -212 -133 -232 0 -26 48 -12 145 42 301 166 641 234 965
191 227 -31 422 -98 611 -212 31 -19 69 -34 84 -34 l28 0 -6 158 c-4 106 -13
184 -26 239 -63 255 -225 442 -441 508 -79 24 -345 31 -420 10z"/>
<path d="M3180 4789 c-254 -37 -448 -231 -521 -521 -17 -68 -21 -122 -24 -298
-2 -118 -1 -199 3 -180 6 29 19 43 75 82 198 135 421 211 703 239 321 32 666
-47 943 -215 58 -36 101 -46 101 -25 0 22 -60 136 -117 221 -171 255 -430 505
-636 614 -130 68 -197 86 -342 89 -71 1 -155 -1 -185 -6z"/>
<path d="M1425 3959 c-208 -22 -465 -113 -622 -220 -35 -24 -52 -29 -102 -29
l-61 0 0 -192 c0 -180 11 -407 26 -540 6 -56 7 -58 35 -58 16 0 79 26 142 59
215 114 396 159 674 168 316 10 532 -32 770 -150 101 -50 102 -50 135 -34 19
9 44 14 56 10 l22 -5 -2 368 -3 369 -60 6 c-49 4 -75 15 -142 56 -165 102
-377 171 -587 192 -122 12 -164 12 -281 0z"/>
<path d="M3400 3954 c-266 -33 -529 -143 -691 -288 l-89 -80 0 -331 c0 -181 4
-335 8 -342 5 -8 23 -1 62 24 30 19 96 54 145 78 473 225 1000 214 1462 -31
56 -30 113 -54 126 -54 22 0 25 5 31 53 13 110 26 379 26 542 l0 170 -53 0
c-44 0 -63 7 -127 46 -237 145 -444 207 -715 214 -82 2 -166 1 -185 -1z"/>
<path d="M3385 3009 c-181 -18 -387 -83 -547 -172 -85 -46 -198 -148 -198
-178 0 -10 7 -92 16 -181 14 -140 15 -233 8 -653 -5 -269 -9 -591 -9 -715 1
-217 2 -228 28 -305 63 -187 195 -348 348 -424 117 -58 180 -68 337 -53 213
19 338 60 490 160 101 66 177 154 233 267 82 169 182 659 273 1340 27 201 76
626 76 660 0 18 -7 21 -52 21 -44 1 -67 9 -132 47 -172 100 -376 166 -580 186
-122 12 -173 12 -291 0z"/>
<path d="M1495 2993 c-245 -16 -445 -73 -636 -183 -69 -40 -96 -50 -132 -50
l-46 0 5 -32 c2 -18 13 -116 25 -218 73 -674 193 -1377 281 -1650 81 -255 274
-425 565 -499 103 -27 281 -45 351 -37 260 30 484 259 549 559 14 64 14 127 2
592 -16 640 -15 758 11 1055 11 129 20 246 20 258 l0 24 -31 -26 c-38 -32 -54
-32 -110 -1 -180 101 -279 141 -429 174 -83 17 -332 44 -364 39 -6 -1 -33 -3
-61 -5z"/>
</g>
</svg>
