<?xml version="1.0" standalone="no"?>
<!DOCTYPE svg PUBLIC "-//W3C//DTD SVG 20010904//EN"
 "http://www.w3.org/TR/2001/REC-SVG-20010904/DTD/svg10.dtd">
<svg version="1.0" xmlns="http://www.w3.org/2000/svg"
 width="512.000000pt" height="512.000000pt" viewBox="0 0 512.000000 512.000000"
 preserveAspectRatio="xMidYMid meet">

<g transform="translate(0.000000,512.000000) scale(0.100000,-0.100000)"
fill="#000000" stroke="none">
<path d="M445 4146 c-22 -7 -54 -20 -71 -29 -35 -18 -106 -92 -127 -133 -36
-70 -38 -129 -35 -1089 l3 -940 26 -56 c33 -69 89 -127 155 -160 l49 -24 1003
-3 1002 -2 0 -55 0 -55 -345 0 c-211 0 -365 -4 -397 -11 -198 -41 -367 -207
-414 -405 -21 -93 -15 -158 20 -192 l26 -27 1220 0 1220 0 26 27 c35 34 41 99
20 192 -46 195 -205 355 -398 401 -49 11 -139 15 -410 15 l-348 0 0 55 0 55
990 0 c975 0 990 0 1044 21 70 26 139 92 174 167 l27 57 0 970 c0 915 -1 973
-18 1023 -25 70 -101 152 -169 183 l-53 24 -2090 2 c-1666 1 -2098 -1 -2130
-11z m1954 -961 c58 -29 67 -128 16 -172 -22 -19 -38 -23 -101 -23 l-74 0 0
-179 c0 -177 0 -180 -25 -209 -31 -36 -73 -48 -119 -32 -60 19 -65 38 -68 237
l-3 178 -78 5 c-71 4 -81 8 -103 33 -43 51 -27 144 30 167 11 5 128 9 259 9
190 1 244 -2 266 -14z m435 -6 c15 -12 55 -77 90 -147 l64 -127 65 131 c36 71
72 136 80 142 26 22 81 26 115 8 33 -17 62 -61 62 -95 0 -11 -54 -128 -120
-260 -102 -204 -125 -243 -152 -257 -37 -19 -91 -13 -120 13 -31 28 -248 468
-248 502 0 90 97 143 164 90z"/>
</g>
</svg>
