<svg width="32" height="32" viewBox="0 0 32 32" fill="none" xmlns="http://www.w3.org/2000/svg">
<path fill-rule="evenodd" clip-rule="evenodd" d="M16 1C24.2842 1 31 7.71571 31 16C31 24.2842 24.2842 31 16 31C7.71577 31 1 24.2842 1 16C1 7.71571 7.71577 1 16 1ZM9.78773 6.03124C10.4076 6.54419 10.5916 6.13316 10.9435 6.87447C11.0502 7.09932 11.1519 7.29638 11.2683 7.53834C11.3715 7.75277 11.4594 7.99393 11.6058 8.19835L13.508 7.87564C13.4151 8.06753 12.3861 8.63777 12.2081 8.74903C11.753 9.03362 11.2871 9.31218 10.8884 9.56613C10.3058 9.93719 10.2342 10.1845 9.82579 10.6445C9.53265 10.9748 9.06505 11.5164 8.99218 11.9584C9.40766 11.897 10.1047 11.5979 10.5304 11.602C10.3997 11.7319 8.21718 13.0963 8.22613 13.6351C8.23025 13.8882 8.36856 14.5666 8.40463 14.8914L8.76336 14.9176C8.77317 14.905 8.78596 14.8734 8.79001 14.882L9.65054 13.6083C10.3102 13.5498 11.2983 13.7323 11.9048 13.6092L12.8212 12.5401C13.0057 12.5837 13.6009 12.7009 13.7307 12.8018C13.8037 12.8585 14.1029 13.4897 14.1322 13.5968C13.523 14.5541 13.3667 13.5162 14.1338 16.0023C14.2298 16.3135 14.2276 16.3314 13.9812 16.4863L13.5318 15.3743C13.1502 16.0686 13.245 16.354 13.3342 16.8952C13.4281 17.4642 13.6032 18.2057 13.6421 18.737L14.3137 18.8235C14.2701 18.5591 14.2115 18.4132 14.1387 18.1873C14.0543 17.9257 13.9813 17.9013 14.1509 17.6826C14.2893 17.5041 14.6715 17.0145 14.8159 16.9056C15.3135 16.9067 15.8397 16.8883 16.3328 16.9029C16.733 16.9148 16.946 17.2993 17.2748 17.4375C17.1797 18.9576 17.2247 18.546 16.5923 19.392C16.9219 19.3688 17.511 18.9598 17.8944 18.8608L18.1592 15.6336L16.9859 14.536L17.6316 13.8583C17.3642 13.4658 17.1619 13.7477 17.1698 12.9707C17.505 12.5793 17.4142 12.6588 17.9993 12.6566C18.603 12.6544 18.4564 12.6672 18.7935 13.0116L19.9293 14.1791C20.2429 14.2357 20.8136 14.1477 21.0934 14.0839C21.0899 13.3619 22.6529 13.8257 22.9501 13.3463C23.1963 12.9495 22.2042 11.6098 22.0588 11.0725C21.6337 9.50155 20.8052 9.1913 19.213 8.61808C19.083 8.57133 18.9565 8.53387 18.8206 8.49282L18.5555 8.39535C18.4141 8.32268 18.489 8.36054 18.4439 8.32699C18.6117 8.04048 18.643 8.03981 19.0426 8.07316C20.2903 8.17733 19.5672 8.33713 20.9613 6.91193C21.2242 6.99097 22.4388 7.32105 22.5648 7.40539C22.5512 7.23312 22.0118 6.83999 21.8943 6.72568C21.7345 6.57012 21.6349 6.50302 21.5109 6.37896C21.3581 6.22625 21.2867 6.13581 21.1294 6.05273C20.8476 6.23567 20.1103 6.74868 19.8613 6.82533L19.4822 6.82003C19.1171 6.79384 19.0687 6.70287 18.7782 6.6477C18.5003 6.59498 18.287 6.62747 18.1245 6.42378L17.7901 6.40548C17.1858 6.39527 15.8548 5.82324 15.5473 5.97753C15.1959 6.15398 13.92 6.98673 13.616 6.97545L13.4859 6.7648C13.5876 6.53644 14.0452 6.26961 14.2599 6.09861C14.5046 5.90367 14.7684 5.62611 15.119 5.54501C15.8472 5.37646 16.6914 5.19166 17.414 4.98764L15.18 5.11442C14.4169 5.16176 14.3174 5.33482 13.5121 5.87628C13.3538 5.98271 12.8961 6.30741 12.7719 6.33765C12.5675 6.38725 11.7608 6.36861 11.5614 6.31006L10.1927 5.84698C10.0333 5.80978 10.0953 5.78611 9.95204 5.8554L9.78773 6.03124ZM7.43628 14.2156C7.51479 14.9503 7.12392 16.481 7.35931 17.0362L8.26466 19.284L9.62203 20.7346L16 23.8134L21.6861 21.249C21.9408 21.0611 22.7015 20.4964 22.8803 20.2568C23.3069 19.6848 23.9825 18.8968 24.2078 18.2968C24.3473 17.9253 24.7292 16.9997 24.779 16.6884L25.0753 14.8605C25.2046 14.7852 25.1355 14.9662 25.1617 14.4881C25.1532 14.3134 25.1404 14.1382 25.1331 13.9623C25.0429 13.5062 25.2254 13.1068 24.9503 12.6975L23.0804 9.97233C22.7424 9.43491 23.7854 8.43839 23.4754 7.64376C23.2414 7.04388 23.3591 7.17059 22.8752 6.73761C22.6205 6.50958 22.2515 6.19926 22.0659 5.97893L21.7282 5.05825C20.6937 4.97849 20.0982 5.29039 19.9013 5.1786C19.6459 5.03372 19.2816 4.45095 18.9872 4.57991C18.6218 4.73998 18.3354 4.35792 18.0082 4.41654L15.7947 4.41561C15.5066 4.50127 14.3872 4.44219 14.2092 4.61625L12.8245 5.86693C12.6348 5.96653 11.7115 5.93629 11.4925 5.85586C11.0267 5.68472 10.1939 5.23847 10.0054 5.34463L8.63439 6.21935C8.55058 6.33247 8.45059 7.27861 8.43096 7.49338C8.39376 7.89924 8.64446 8.30319 8.77124 8.6269C9.01055 9.23758 9.10795 9.12526 8.84418 9.71015C8.55243 10.3576 8.23873 11.0343 7.9255 11.7053C7.70894 12.1693 7.60219 12.2424 7.56658 12.8137C7.54536 13.1554 7.57301 13.9884 7.43628 14.2156ZM10.2463 24.0287L10.6619 25.3163L12.0149 25.3136L10.9188 26.1068L11.3394 27.3928L10.2463 26.5954L9.15324 27.3928L9.57382 26.1068L8.47764 25.3136L9.83063 25.3163L10.2463 24.0287ZM21.6497 24.0287L22.0654 25.3163L23.4184 25.3136L22.3222 26.1068L22.7428 27.3928L21.6497 26.5954L20.5567 27.3928L20.9772 26.1068L19.8812 25.3136L21.2342 25.3163L21.6497 24.0287ZM18.0455 24.9371L18.461 26.2247L19.814 26.2221L18.7179 27.0152L19.1385 28.3012L18.0455 27.5038L16.9523 28.3012L17.373 27.0152L16.2769 26.2221L17.6299 26.2247L18.0455 24.9371ZM13.8506 24.9371L14.2662 26.2247L15.6192 26.2221L14.523 27.0152L14.9437 28.3012L13.8506 27.5038L12.7575 28.3012L13.1781 27.0152L12.082 26.2221L13.435 26.2247L13.8506 24.9371ZM16 1.87559C23.8006 1.87559 30.1243 8.19935 30.1243 16C30.1243 23.8007 23.8006 30.1243 16 30.1243C8.19935 30.1243 1.87565 23.8007 1.87565 16C1.87565 8.19935 8.19935 1.87559 16 1.87559Z" fill="#DEA766"/>
</svg>
