<svg width="55" height="56" viewBox="0 0 55 56" fill="none" xmlns="http://www.w3.org/2000/svg">
<path fill-rule="evenodd" clip-rule="evenodd" d="M27.5001 0C42.6878 0 55 12.536 55 27.9999C55 43.4639 42.6878 56 27.5001 56C12.3122 56 0 43.4639 0 27.9999C0 12.536 12.3122 0 27.5001 0ZM16.1108 9.39165C17.2473 10.3492 17.5847 9.58189 18.2297 10.9657C18.4253 11.3854 18.6119 11.7532 18.8252 12.2049C19.0144 12.6052 19.1756 13.0553 19.444 13.4369L22.9314 12.8345C22.7611 13.1927 20.8745 14.2572 20.5482 14.4649C19.7138 14.9961 18.8596 15.5161 18.1288 15.9901C17.0606 16.6828 16.9294 17.1444 16.1806 18.003C15.6432 18.6197 14.7859 19.6305 14.6523 20.4557C15.414 20.341 16.692 19.7828 17.4723 19.7904C17.2329 20.0329 13.2315 22.5798 13.2479 23.5856C13.2554 24.058 13.509 25.3243 13.5752 25.9306L14.2328 25.9795C14.2508 25.9559 14.2743 25.897 14.2817 25.9131L15.8593 23.5354C17.0688 23.4263 18.8802 23.7669 19.9921 23.5372L21.6722 21.5415C22.0104 21.6229 23.1017 21.8416 23.3397 22.03C23.4735 22.1359 24.0219 23.3141 24.0756 23.514C22.9588 25.3011 22.6722 23.3635 24.0786 28.0043C24.2546 28.5851 24.2507 28.6186 23.7988 28.9078L22.975 26.832C22.2753 28.128 22.4492 28.6608 22.6127 29.6711C22.7848 30.7332 23.1059 32.1174 23.1772 33.109L24.4085 33.2704C24.3285 32.777 24.2211 32.5047 24.0876 32.083C23.9329 31.5946 23.7991 31.549 24.11 31.1409C24.3637 30.8077 25.0644 29.8938 25.3292 29.6904C26.2414 29.6924 27.2061 29.6582 28.1102 29.6855C28.8438 29.7076 29.2343 30.4254 29.8371 30.6833C29.6628 33.5208 29.7452 32.7524 28.5859 34.3318C29.1902 34.2883 30.2701 33.525 30.973 33.3403L31.4585 27.3161L29.3075 25.2672L30.4912 24.0021C30.001 23.2696 29.6302 23.7957 29.6446 22.3452C30.2592 21.6146 30.0926 21.763 31.1654 21.7589C32.2721 21.7548 32.0035 21.7789 32.6215 22.4216L34.7037 24.601C35.2787 24.7067 36.3249 24.5425 36.8379 24.4233C36.8315 23.0755 39.6971 23.9413 40.2419 23.0464C40.6931 22.3058 38.8745 19.8049 38.6077 18.802C37.8284 15.8696 36.3096 15.2904 33.3905 14.2204C33.1521 14.1332 32.9203 14.0632 32.6711 13.9866L32.1851 13.8047C31.9258 13.669 32.0632 13.7397 31.9805 13.677C32.2881 13.1422 32.3454 13.141 33.0781 13.2032C35.3655 13.3977 34.0399 13.696 36.5956 11.0356C37.0777 11.1831 39.3044 11.7993 39.5354 11.9567C39.5105 11.6352 38.5217 10.9013 38.3063 10.6879C38.0133 10.3976 37.8306 10.2723 37.6033 10.0407C37.3232 9.75567 37.1923 9.58684 36.9039 9.43175C36.3873 9.77324 35.0356 10.7309 34.579 10.874L33.8841 10.8641C33.2146 10.8152 33.1259 10.6453 32.5934 10.5424C32.084 10.444 31.6928 10.5046 31.3949 10.1244L30.7818 10.0902C29.674 10.0712 27.2337 9.00338 26.67 9.2914C26.0259 9.62076 23.6866 11.1752 23.1294 11.1542L22.8909 10.761C23.0772 10.3347 23.9162 9.83661 24.3098 9.5174C24.7585 9.15351 25.2421 8.6354 25.8849 8.48403C27.2199 8.16939 28.7676 7.82444 30.0923 7.44359L25.9967 7.68024C24.5976 7.76862 24.4152 8.09166 22.9389 9.1024C22.6486 9.30105 21.8095 9.90717 21.5818 9.96361C21.207 10.0562 19.7282 10.0214 19.3625 9.91212L16.8533 9.04769C16.5611 8.97825 16.6746 8.93406 16.4121 9.06341L16.1108 9.39165ZM11.7999 24.6691C11.9438 26.0406 11.2272 28.8978 11.6587 29.9343L13.3185 34.1302L15.8071 36.8378L27.5001 42.585L37.9246 37.7982C38.3915 37.4474 39.7862 36.3934 40.1139 35.946C40.896 34.8783 42.1346 33.4073 42.5477 32.2874C42.8034 31.5938 43.5034 29.8661 43.5949 29.2851L44.1381 25.873C44.375 25.7324 44.2484 26.0702 44.2964 25.1778C44.2808 24.8516 44.2575 24.5246 44.244 24.1963C44.0787 23.345 44.4132 22.5993 43.9089 21.8353L40.4808 16.7483C39.8611 15.7452 41.7732 13.885 41.2049 12.4017C40.7758 11.2819 40.9917 11.5184 40.1045 10.7102C39.6376 10.2846 38.9611 9.70529 38.6209 9.294L38.0017 7.57541C36.1051 7.42651 35.0134 8.00873 34.6523 7.80005C34.1841 7.52961 33.5162 6.44177 32.9766 6.68251C32.3066 6.98129 31.7816 6.26812 31.1817 6.37753L27.1236 6.3758C26.5954 6.53571 24.5432 6.42543 24.2169 6.75033L21.6782 9.08494C21.3305 9.27085 19.6377 9.21441 19.2363 9.06427C18.3824 8.74481 16.8554 7.91182 16.5099 8.10998L13.9964 9.74279C13.8427 9.95395 13.6594 11.7201 13.6234 12.121C13.5552 12.8786 14.0149 13.6326 14.2473 14.2369C14.686 15.3768 14.8646 15.1671 14.381 16.2589C13.8461 17.4676 13.271 18.7307 12.6967 19.9832C12.2997 20.8493 12.104 20.9858 12.0387 22.0523C11.9998 22.6901 12.0505 24.245 11.7999 24.6691ZM16.9516 42.9869L17.7134 45.3904L20.1939 45.3855L18.1845 46.866L18.9555 49.2666L16.9516 47.7781L14.9476 49.2666L15.7187 46.866L13.709 45.3855L16.1895 45.3904L16.9516 42.9869ZM37.8578 42.9869L38.6199 45.3904L41.1004 45.3855L39.0907 46.866L39.8618 49.2666L37.8578 47.7781L35.8539 49.2666L36.6249 46.866L34.6155 45.3855L37.096 45.3904L37.8578 42.9869ZM31.25 44.6826L32.0119 47.0861L34.4924 47.0812L32.4828 48.5617L33.254 50.9623L31.25 49.4738L29.2459 50.9623L30.0171 48.5617L28.0076 47.0812L30.4881 47.0861L31.25 44.6826ZM23.5594 44.6826L24.3213 47.0861L26.8019 47.0812L24.7922 48.5617L25.5634 50.9623L23.5594 49.4738L21.5554 50.9623L22.3266 48.5617L20.317 47.0812L22.7975 47.0861L23.5594 44.6826ZM27.5001 1.63443C41.8011 1.63443 53.3946 13.4388 53.3946 27.9999C53.3946 42.5612 41.8011 54.3654 27.5001 54.3654C13.1988 54.3654 1.60536 42.5612 1.60536 27.9999C1.60536 13.4388 13.1988 1.63443 27.5001 1.63443Z" fill="white"/>
</svg>
