<svg width="95" height="95" viewBox="0 0 95 95" fill="none" xmlns="http://www.w3.org/2000/svg">
<path fill-rule="evenodd" clip-rule="evenodd" d="M47.5001 0C73.7334 0 95 21.2664 95 47.4999C95 73.7334 73.7334 95 47.5001 95C21.2666 95 0 73.7334 0 47.4999C0 21.2664 21.2666 0 47.5001 0ZM27.8278 15.9323C29.7908 17.5566 30.3735 16.255 31.4876 18.6025C31.8255 19.3145 32.1478 19.9385 32.5163 20.7047C32.843 21.3838 33.1214 22.1474 33.585 22.7948L39.6087 21.7728C39.3145 22.3805 36.056 24.1863 35.4924 24.5386C34.0512 25.4398 32.5757 26.3219 31.3133 27.1261C29.4683 28.3011 29.2418 29.0843 27.9483 30.5409C27.02 31.5869 25.5393 33.3018 25.3086 34.7017C26.6243 34.507 28.8317 33.5601 30.1795 33.5731C29.7658 33.9844 22.8544 38.305 22.8828 40.0112C22.8958 40.8127 23.3338 42.9609 23.448 43.9894L24.584 44.0723C24.615 44.0324 24.6556 43.9325 24.6684 43.9598L27.3934 39.9262C29.4824 39.741 32.6112 40.3188 34.5318 39.9291L37.4338 36.5435C38.018 36.6817 39.9029 37.0527 40.314 37.3723C40.5452 37.552 41.4924 39.5508 41.5852 39.8899C39.6562 42.9215 39.1611 39.6346 41.5902 47.5072C41.8943 48.4926 41.8876 48.5493 41.1071 49.04L39.6841 45.5186C38.4755 47.7172 38.776 48.6209 39.0584 50.3349C39.3555 52.1367 39.9102 54.4848 40.0333 56.1671L42.1601 56.4409C42.0219 55.6038 41.8365 55.1418 41.6058 54.4265C41.3387 53.5979 41.1075 53.5206 41.6446 52.8284C42.0828 52.2631 43.2931 50.7127 43.7504 50.3677C45.326 50.3711 46.9924 50.3131 48.554 50.3593C49.8211 50.3969 50.4956 51.6145 51.5368 52.0521C51.2357 56.8657 51.3781 55.5622 49.3756 58.2414C50.4193 58.1677 52.2847 56.8728 53.4988 56.5594L54.3374 46.3398L50.622 42.8639L52.6667 40.7178C51.8199 39.4752 51.1794 40.3678 51.2042 37.9071C52.2658 36.6676 51.9782 36.9194 53.8312 36.9125C55.7428 36.9055 55.2787 36.9463 56.3462 38.0367L59.9428 41.7338C60.936 41.9132 62.743 41.6345 63.6291 41.4323C63.618 39.1459 68.5676 40.6147 69.5087 39.0966C70.2882 37.8401 67.1468 33.5976 66.6861 31.8962C65.34 26.9216 62.7166 25.9391 57.6745 24.1239C57.2628 23.9759 56.8623 23.8572 56.4319 23.7273L55.5924 23.4186C55.1446 23.1885 55.3818 23.3084 55.239 23.2021C55.7703 22.2948 55.8694 22.2927 57.1349 22.3984C61.0859 22.7282 58.7962 23.2343 63.2106 18.7211C64.0434 18.9714 67.8894 20.0166 68.2884 20.2837C68.2453 19.7382 66.5374 18.4933 66.1654 18.1313C65.6593 17.6387 65.3438 17.4262 64.9511 17.0334C64.4673 16.5498 64.2412 16.2634 63.7431 16.0003C62.8507 16.5796 60.5161 18.2042 59.7274 18.4469L58.527 18.4301C57.3707 18.3472 57.2174 18.0591 56.2977 17.8844C55.4177 17.7174 54.742 17.8203 54.2276 17.1753L53.1685 17.1174C51.255 17.085 47.04 15.2736 46.0664 15.7622C44.9538 16.3209 40.9133 18.958 39.9508 18.9223L39.5388 18.2552C39.8607 17.532 41.3097 16.6871 41.9896 16.1456C42.7646 15.5283 43.6001 14.6493 44.7102 14.3925C47.0161 13.8588 49.6895 13.2736 51.9776 12.6275L44.9034 13.029C42.4868 13.1789 42.1716 13.7269 39.6217 15.4416C39.1203 15.7786 37.6709 16.8068 37.2776 16.9025C36.6303 17.0596 34.076 17.0006 33.4444 16.8152L29.1103 15.3488C28.6055 15.231 28.8017 15.156 28.3481 15.3754L27.8278 15.9323ZM20.3816 41.8493C20.6302 44.176 19.3924 49.023 20.1378 50.7813L23.0048 57.8994L27.3031 62.4927L47.5001 72.2424L65.5061 64.1219C66.3126 63.5269 68.7216 61.7387 69.2876 60.9799C70.6386 59.1685 72.778 56.6732 73.4915 54.7733C73.9331 53.5966 75.1423 50.6656 75.3002 49.68L76.2386 43.8917C76.6478 43.6532 76.429 44.2262 76.512 42.7123C76.4851 42.159 76.4447 41.6043 76.4214 41.0472C76.1359 39.6031 76.7137 38.3382 75.8426 37.042L69.9213 28.4124C68.8509 26.7106 72.1538 23.5549 71.1721 21.0386C70.4309 19.139 70.8039 19.5402 69.2715 18.1691C68.465 17.447 67.2965 16.4643 66.7088 15.7666L65.6394 12.8511C62.3634 12.5985 60.4776 13.5862 59.854 13.2322C59.0452 12.7734 57.8916 10.928 56.9595 11.3364C55.8024 11.8433 54.8955 10.6334 53.8593 10.819L46.8498 10.8161C45.9375 11.0874 42.3927 10.9003 41.8292 11.4515L37.4441 15.412C36.8436 15.7273 33.9197 15.6316 33.2264 15.3769C31.7514 14.835 29.1139 13.4218 28.5171 13.758L24.1756 16.528C23.9102 16.8862 23.5935 19.8823 23.5314 20.5624C23.4136 21.8476 24.2075 23.1268 24.6089 24.1518C25.3667 26.0857 25.6752 25.73 24.8399 27.5821C23.916 29.6325 22.9227 31.7753 21.9307 33.9C21.245 35.3694 20.9069 35.601 20.7942 37.4101C20.727 38.4921 20.8145 41.13 20.3816 41.8493ZM29.28 72.9242L30.5959 77.0016L34.8804 76.9932L31.4095 79.5049L32.7414 83.5773L29.28 81.0522L25.8186 83.5773L27.1504 79.5049L23.6792 76.9932L27.9637 77.0016L29.28 72.9242ZM65.3908 72.9242L66.7071 77.0016L70.9916 76.9932L67.5203 79.5049L68.8522 83.5773L65.3908 81.0522L61.9294 83.5773L63.2612 79.5049L59.7904 76.9932L64.0749 77.0016L65.3908 72.9242ZM53.9773 75.8008L55.2932 79.8782L59.5777 79.8698L56.1066 82.3815L57.4387 86.4539L53.9773 83.9288L50.5157 86.4539L51.8478 82.3815L48.3767 79.8698L52.6612 79.8782L53.9773 75.8008ZM40.6934 75.8008L42.0095 79.8782L46.2942 79.8698L42.823 82.3815L44.155 86.4539L40.6934 83.9288L37.2321 86.4539L38.5641 82.3815L35.0931 79.8698L39.3775 79.8782L40.6934 75.8008ZM47.5001 2.77269C72.2019 2.77269 92.2271 22.7979 92.2271 47.4999C92.2271 72.2021 72.2019 92.2271 47.5001 92.2271C22.7979 92.2271 2.77289 72.2021 2.77289 47.4999C2.77289 22.7979 22.7979 2.77269 47.5001 2.77269Z" fill="white"/>
</svg>
