<?xml version="1.0" standalone="no"?>
<!DOCTYPE svg PUBLIC "-//W3C//DTD SVG 20010904//EN"
 "http://www.w3.org/TR/2001/REC-SVG-20010904/DTD/svg10.dtd">
<svg version="1.0" xmlns="http://www.w3.org/2000/svg"
 width="512.000000pt" height="512.000000pt" viewBox="0 0 512.000000 512.000000"
 preserveAspectRatio="xMidYMid meet">

<g transform="translate(0.000000,512.000000) scale(0.100000,-0.100000)"
fill="#000000" stroke="none">
<path d="M2322 3964 c-89 -44 -142 -128 -141 -224 0 -102 44 -177 131 -226
l53 -29 685 -5 685 -5 77 -145 77 -145 -1562 -5 -1562 -5 -47 -22 c-105 -48
-165 -120 -194 -233 -40 -158 40 -337 181 -402 l50 -23 1805 0 1805 0 50 23
c139 64 221 244 182 399 -17 64 -464 916 -517 983 -15 19 -51 47 -80 63 l-52
27 -787 0 -787 0 -52 -26z"/>
<path d="M666 2298 c-5 -26 -67 -1034 -66 -1086 0 -21 9 -42 25 -57 23 -24 28
-25 170 -25 l145 0 0 438 c0 476 -1 471 56 493 31 11 88 -10 103 -39 7 -14 11
-163 11 -456 l0 -436 170 0 170 0 0 439 0 440 23 26 c33 39 91 39 123 1 l24
-27 0 -440 0 -439 170 0 170 0 0 430 c0 474 0 478 60 498 35 13 56 8 88 -21
l22 -20 0 -444 0 -443 170 0 170 0 0 418 c0 264 4 431 11 455 8 30 18 42 45
53 29 12 39 12 68 0 27 -11 37 -23 45 -53 7 -24 11 -191 11 -455 l0 -418 170
0 170 0 0 443 0 444 23 20 c31 29 52 34 87 21 60 -20 60 -24 60 -498 l0 -430
170 0 170 0 0 438 c0 476 -1 471 56 493 31 11 88 -10 103 -39 7 -14 11 -163
11 -456 l0 -436 170 0 170 0 0 439 0 440 23 26 c33 39 91 39 123 1 l24 -27 0
-440 0 -439 145 0 c142 0 147 1 170 25 16 15 25 36 25 57 1 52 -61 1060 -66
1086 l-4 22 -1890 0 -1890 0 -4 -22z"/>
</g>
</svg>
