<svg width="120" height="120" viewBox="0 0 120 120" fill="none" xmlns="http://www.w3.org/2000/svg">
<path d="M67.8893 47.0796H102.553C102.553 47.0796 103.825 47.4968 104.337 48.0959C104.913 48.7694 105.006 49.3583 105 50.2255C104.994 51.0745 104.872 51.7232 104.337 52.4034C103.832 53.046 102.553 53.4682 102.553 53.4682H67.8893V47.0796Z" fill="black"/>
<path d="M68.1109 77.7803L96.0869 98.3831C96.0869 98.3831 96.8689 99.476 96.9305 100.264C96.9999 101.149 96.7295 101.68 96.2162 102.376C95.7136 103.058 95.2348 103.509 94.4038 103.74C93.6188 103.958 92.3394 103.539 92.3394 103.539L68.111 85.6774L68.1109 77.7803Z" fill="black"/>
<path d="M48.4084 92.3953L33.2903 103.693C33.2903 103.693 32.0247 104.13 31.2578 103.961C30.3957 103.772 29.9695 103.357 29.456 102.661C28.9531 101.979 28.6628 101.387 28.6839 100.52C28.7039 99.7006 29.4729 98.5893 29.4729 98.5893L37.6546 92.3953L48.4084 92.3953Z" fill="black"/>
<path d="M29.809 53.4682L17.4469 53.4682C17.4469 53.4682 16.1747 53.0509 15.6629 52.4518C15.0875 51.7784 14.9945 51.1894 15.0002 50.3223C15.0059 49.4732 15.1277 48.8245 15.6629 48.1443C16.1685 47.5018 17.4469 47.0796 17.4469 47.0796H29.809V53.4682Z" fill="black"/>
<path d="M34.5691 47.0796H63.8345V83.5477C63.8345 83.5477 63.7994 84.5815 62.6885 86.2096C61.5777 87.8378 58.3693 87.74 58.3693 87.74H38.2272C38.2272 87.74 36.646 87.5723 35.6269 86.5646C34.5893 85.5387 34.5691 83.9914 34.5691 83.9914V47.0796Z" fill="black"/>
<path d="M68.1541 69.8832L83.6418 58.6219H95.304L68.1538 78.4014L68.1541 69.8832Z" fill="black"/>
<path d="M56.3418 34.3024C58.7678 31.9121 64.4515 30.5757 64.4515 30.5757H89.0451L86.665 23.8322H69.6523C69.6523 23.8322 67.6249 27.7364 65.4212 26.4941C58.345 22.5053 67.6249 17 67.6249 17H89.7502L92.1303 18.7746L98.2125 36.5207C98.2125 36.5207 99.9219 40.1 98.7414 41.667C97.9766 42.6822 96.4496 42.6431 96.4496 42.6431H52.904C52.904 42.6431 53.7379 36.8681 56.3418 34.3024Z" fill="black"/>
</svg>
