<?xml version="1.0" encoding="UTF-8"?>
<!DOCTYPE svg PUBLIC "-//W3C//DTD SVG 1.1//EN" "http://www.w3.org/Graphics/SVG/1.1/DTD/svg11.dtd">
<svg xmlns="http://www.w3.org/2000/svg" version="1.1" width="512px" height="512px" style="shape-rendering:geometricPrecision; text-rendering:geometricPrecision; image-rendering:optimizeQuality; fill-rule:evenodd; clip-rule:evenodd" xmlns:xlink="http://www.w3.org/1999/xlink">
<g><path style="opacity:0.976" fill="#000000" d="M 285.5,-0.5 C 343.167,-0.5 400.833,-0.5 458.5,-0.5C 487.167,6.16667 504.833,23.8333 511.5,52.5C 511.5,110.167 511.5,167.833 511.5,225.5C 508.786,239.604 503.286,252.604 495,264.5C 476.525,283.308 457.692,301.808 438.5,320C 430.45,320.851 422.783,323.017 415.5,326.5C 403.052,321.354 390.052,318.854 376.5,319C 403.571,292.718 430.737,266.552 458,240.5C 463.777,233.942 467.11,226.275 468,217.5C 468.983,163.788 468.649,110.122 467,56.5C 463.952,49.0526 458.452,44.5526 450.5,43C 398.167,42.3333 345.833,42.3333 293.5,43C 284.732,43.886 277.065,47.2194 270.5,53C 196.364,130.803 121.864,208.303 47,285.5C 40.6828,295.295 41.3495,304.628 49,313.5C 98.5,363 148,412.5 197.5,462C 205.317,468.585 213.817,469.752 223,465.5C 223.113,479.719 223.946,493.885 225.5,508C 225.352,509.256 225.018,510.423 224.5,511.5C 216.833,511.5 209.167,511.5 201.5,511.5C 188.719,508.609 177.385,502.775 167.5,494C 117.333,443.833 67.1667,393.667 17,343.5C 8.21965,333.604 2.38631,322.271 -0.5,309.5C -0.5,301.833 -0.5,294.167 -0.5,286.5C 1.96497,275.963 6.46497,266.296 13,257.5C 88.8026,178.03 164.969,98.8631 241.5,20C 254.377,9.21308 269.044,2.37975 285.5,-0.5 Z"/></g>
<g><path style="opacity:0.973" fill="#000000" d="M 395.5,63.5 C 421.597,60.7875 438.764,71.7875 447,96.5C 450.431,122.365 439.931,139.531 415.5,148C 392.555,152.249 375.722,144.083 365,123.5C 358.257,104.212 362.09,87.3783 376.5,73C 382.378,68.7274 388.712,65.5607 395.5,63.5 Z"/></g>
<g><path style="opacity:0.964" fill="#000000" d="M 288.5,511.5 C 284.5,511.5 280.5,511.5 276.5,511.5C 271.436,508.932 267.936,504.932 266,499.5C 265.667,465.5 265.333,431.5 265,397.5C 264.167,396.667 263.333,395.833 262.5,395C 249.5,394.667 236.5,394.333 223.5,394C 212.309,388.361 209.475,379.861 215,368.5C 217.778,365.193 221.278,363.026 225.5,362C 238.833,361.333 252.167,361.333 265.5,362C 281.188,364.689 291.688,373.523 297,388.5C 298.642,425.787 298.975,463.12 298,500.5C 296.202,505.482 293.035,509.149 288.5,511.5 Z"/></g>
<g><path style="opacity:0.972" fill="#000000" d="M 366.5,511.5 C 354.167,511.5 341.833,511.5 329.5,511.5C 319.177,505.293 316.677,496.626 322,485.5C 323.938,482.894 326.438,481.061 329.5,480C 340.215,479.875 350.882,479.208 361.5,478C 374.832,470.003 375.832,460.67 364.5,450C 362.212,449.178 359.878,448.511 357.5,448C 348.167,447.667 338.833,447.333 329.5,447C 325,445.167 321.833,442 320,437.5C 319.333,415.833 319.333,394.167 320,372.5C 322.256,367.243 326.09,363.743 331.5,362C 351.833,361.333 372.167,361.333 392.5,362C 405.16,367.309 408.327,376.142 402,388.5C 399.9,391.467 397.066,393.3 393.5,394C 379.504,394.5 365.504,394.667 351.5,394.5C 351.5,401.5 351.5,408.5 351.5,415.5C 380.958,414.799 398.791,428.799 405,457.5C 406.107,485.67 393.273,503.67 366.5,511.5 Z"/></g>
<g><path style="opacity:0.925" fill="#000000" d="M 438.5,361.5 C 456.075,362.324 461.908,370.991 456,387.5C 447.322,396.468 438.322,396.801 429,388.5C 422.768,376.022 425.935,367.022 438.5,361.5 Z"/></g>
<g><path style="opacity:0.957" fill="#000000" d="M 511.5,372.5 C 511.5,376.5 511.5,380.5 511.5,384.5C 492.442,424.956 473.608,465.623 455,506.5C 452.574,508.452 450.074,510.119 447.5,511.5C 443.833,511.5 440.167,511.5 436.5,511.5C 428.011,507.523 424.511,500.857 426,491.5C 444.393,450.381 463.059,409.381 482,368.5C 488.342,361.374 495.842,359.874 504.5,364C 507.454,366.441 509.787,369.275 511.5,372.5 Z"/></g>
<g><path style="opacity:0.937" fill="#000000" d="M 511.5,489.5 C 511.5,493.5 511.5,497.5 511.5,501.5C 509.167,505.833 505.833,509.167 501.5,511.5C 497.5,511.5 493.5,511.5 489.5,511.5C 479.177,505.293 476.677,496.626 482,485.5C 488.945,478.931 496.778,477.764 505.5,482C 508.121,484.114 510.121,486.614 511.5,489.5 Z"/></g>
</svg>
