<?xml version="1.0" standalone="no"?>
<!DOCTYPE svg PUBLIC "-//W3C//DTD SVG 20010904//EN"
 "http://www.w3.org/TR/2001/REC-SVG-20010904/DTD/svg10.dtd">
<svg version="1.0" xmlns="http://www.w3.org/2000/svg"
 width="512.000000pt" height="512.000000pt" viewBox="0 0 512.000000 512.000000"
 preserveAspectRatio="xMidYMid meet">

<g transform="translate(0.000000,512.000000) scale(0.100000,-0.100000)"
fill="#000000" stroke="none">
<path d="M2340 5110 c-483 -53 -935 -264 -1276 -597 -84 -82 -116 -150 -116
-249 -1 -98 25 -159 96 -229 79 -78 135 -99 244 -93 98 6 142 28 247 123 215
195 453 316 735 376 151 32 429 32 580 0 285 -61 520 -181 736 -377 104 -94
165 -124 259 -124 102 0 158 23 231 95 71 70 96 131 96 229 -1 104 -31 167
-126 259 -305 297 -726 505 -1157 572 -125 19 -431 27 -549 15z m411 -200
c429 -44 834 -227 1136 -514 80 -75 98 -113 82 -170 -15 -53 -60 -86 -119 -86
-47 0 -53 3 -135 78 -132 118 -246 196 -400 271 -146 73 -275 118 -410 145
-388 77 -756 28 -1110 -149 -145 -72 -261 -152 -390 -267 -82 -75 -88 -78
-135 -78 -59 0 -104 33 -119 86 -16 57 2 95 82 170 397 377 966 569 1518 514z"/>
<path d="M2411 4200 c-106 -14 -252 -55 -354 -100 -180 -79 -378 -235 -433
-341 -24 -46 -28 -66 -29 -134 0 -102 23 -163 87 -231 84 -89 206 -123 319
-90 54 15 70 25 186 117 117 93 228 133 373 133 154 0 265 -43 400 -155 104
-86 146 -104 245 -104 102 1 165 27 233 99 64 68 87 129 87 231 -1 68 -5 88
-29 134 -32 63 -100 132 -204 209 -142 105 -312 179 -494 216 -98 20 -290 28
-387 16z m302 -205 c164 -25 303 -80 442 -176 105 -72 165 -138 172 -186 12
-94 -90 -174 -169 -132 -11 6 -53 38 -92 71 -81 68 -217 138 -321 164 -95 24
-275 24 -370 0 -104 -26 -240 -96 -321 -164 -39 -33 -81 -65 -92 -71 -79 -42
-181 38 -169 132 7 48 67 114 172 186 226 156 481 216 748 176z"/>
<path d="M2444 3269 c-119 -45 -204 -167 -205 -290 -1 -149 63 -251 195 -309
102 -46 214 -34 312 32 128 88 174 263 104 405 -75 152 -251 222 -406 162z
m175 -193 c86 -45 83 -179 -5 -221 -18 -8 -42 -15 -54 -15 -65 0 -123 62 -122
130 1 92 98 148 181 106z"/>
<path d="M383 2266 c-181 -44 -334 -202 -372 -384 -15 -74 -15 -1410 0 -1484
39 -187 200 -348 387 -387 38 -8 662 -11 2165 -11 1864 0 2120 2 2172 15 189
49 336 199 374 383 15 74 15 1410 0 1484 -39 187 -200 348 -387 387 -36 8
-318 11 -893 11 -912 0 -881 2 -907 -55 -7 -14 -12 -35 -12 -46 0 -28 26 -75
47 -85 10 -5 405 -11 878 -14 848 -5 861 -5 906 -26 66 -31 114 -78 146 -142
l28 -57 0 -715 0 -715 -28 -57 c-32 -64 -80 -111 -146 -142 l-46 -21 -2135 0
-2135 0 -46 21 c-66 31 -114 78 -146 142 l-28 57 0 715 0 715 28 57 c32 64 80
111 146 142 45 21 58 21 906 26 473 3 868 9 878 14 21 10 47 57 47 86 0 33
-26 75 -55 88 -38 18 -1699 15 -1772 -2z"/>
<path d="M2511 2266 c-87 -48 -50 -186 49 -186 51 0 100 49 100 99 0 75 -83
124 -149 87z"/>
<path d="M1264 1630 c-32 -13 -54 -50 -54 -90 0 -20 36 -215 80 -435 77 -384
81 -401 110 -430 26 -25 38 -30 79 -30 53 0 82 18 105 65 7 14 44 127 82 252
38 125 72 224 75 220 4 -4 39 -113 78 -242 80 -262 95 -288 167 -296 44 -5 79
10 106 46 18 26 178 792 178 855 -1 56 -58 101 -114 91 -64 -12 -72 -32 -124
-289 -25 -131 -49 -237 -52 -237 -3 0 -36 105 -75 233 -59 197 -75 237 -101
265 -36 36 -68 41 -114 17 -34 -17 -39 -30 -125 -309 -35 -115 -66 -210 -67
-212 -2 -2 -23 97 -47 219 -24 122 -49 236 -56 253 -22 55 -75 77 -131 54z"/>
<path d="M2548 1611 l-33 -29 0 -442 0 -442 33 -29 c18 -16 44 -29 58 -29 33
0 81 25 94 49 14 27 14 875 0 902 -13 24 -61 49 -94 49 -14 0 -40 -13 -58 -29z"/>
<path d="M3008 1624 c-57 -31 -58 -35 -58 -484 0 -451 0 -454 60 -485 36 -19
44 -19 85 0 49 24 55 48 55 230 l0 165 118 0 c96 0 121 4 138 18 52 41 55 109
8 153 -24 22 -35 24 -145 27 l-119 4 0 94 0 94 131 0 131 0 29 29 c50 51 37
130 -26 157 -50 20 -369 19 -407 -2z"/>
<path d="M3761 1624 c-49 -35 -51 -54 -51 -484 0 -434 2 -451 54 -485 36 -24
94 -14 124 20 l22 26 0 439 0 439 -23 26 c-29 34 -92 44 -126 19z"/>
</g>
</svg>
