<?xml version="1.0" standalone="no"?>
<!DOCTYPE svg PUBLIC "-//W3C//DTD SVG 20010904//EN"
 "http://www.w3.org/TR/2001/REC-SVG-20010904/DTD/svg10.dtd">
<svg version="1.0" xmlns="http://www.w3.org/2000/svg"
 width="512.000000pt" height="512.000000pt" viewBox="0 0 512.000000 512.000000"
 preserveAspectRatio="xMidYMid meet">

<g transform="translate(0.000000,512.000000) scale(0.100000,-0.100000)"
fill="#000000" stroke="none">
<path d="M547 5106 c-91 -34 -150 -98 -174 -188 -17 -69 -20 -2812 -2 -2851
11 -24 47 -47 73 -47 7 0 25 9 40 21 l26 20 0 1400 c0 1502 -2 1438 50 1484
15 14 36 20 70 20 34 0 55 -6 70 -20 53 -47 50 76 50 -2225 l0 -2140 -120 0
-120 0 0 604 0 605 -26 20 c-43 34 -86 26 -109 -20 -13 -24 -15 -120 -15 -617
l0 -589 -71 -7 c-96 -9 -160 -38 -214 -98 -63 -71 -77 -126 -73 -283 l3 -125
33 -32 32 -33 560 0 560 0 32 33 33 32 0 148 c0 140 -1 149 -27 198 -51 97
-135 149 -256 160 l-72 7 0 1348 0 1349 135 0 135 0 0 -37 c0 -50 29 -95 73
-116 32 -15 109 -17 849 -17 754 0 815 1 847 18 19 9 44 30 55 45 21 28 21 37
24 853 3 915 5 874 -62 915 -30 18 -67 19 -869 19 l-837 0 -37 -34 c-30 -27
-38 -42 -42 -82 l-6 -49 -131 -3 -131 -3 -6 65 c-3 35 -13 82 -22 103 -20 48
-78 109 -130 135 -50 26 -147 33 -198 14z m2323 -1071 l0 -775 -775 0 -775 0
0 775 0 775 775 0 775 0 0 -775z m-1702 503 l-3 -103 -132 -3 -133 -3 0 106 0
105 135 0 136 0 -3 -102z m0 -500 l-3 -243 -132 -3 -133 -3 0 246 0 245 135 0
135 0 -2 -242z m0 -500 l-3 -103 -132 -3 -133 -3 0 106 0 105 135 0 136 0 -3
-102z m-128 -3133 c52 -31 70 -75 70 -172 l0 -83 -480 0 -480 0 0 80 c0 46 6
95 14 114 15 36 58 71 96 79 14 3 187 4 385 3 343 -1 362 -2 395 -21z"/>
<path d="M1781 4659 c-52 -21 -50 -3 -51 -622 l0 -578 25 -24 c13 -14 36 -25
50 -25 14 0 37 11 50 25 25 24 25 24 25 240 l0 215 130 0 c71 0 153 5 182 11
251 54 383 320 271 548 -55 114 -166 192 -298 211 -88 12 -352 12 -384 -1z
m424 -163 c88 -38 148 -125 148 -216 0 -67 -20 -116 -65 -162 -63 -63 -96 -72
-260 -76 l-148 -4 0 242 0 243 143 -5 c103 -4 153 -9 182 -22z"/>
<path d="M2440 2757 c-69 -15 -120 -46 -160 -97 -27 -33 -166 -301 -191 -367
-7 -20 -14 -21 -186 -25 -166 -3 -182 -5 -233 -29 -78 -37 -114 -71 -149 -141
-27 -52 -31 -72 -31 -138 0 -66 4 -86 31 -138 16 -34 45 -73 62 -88 38 -32
124 -74 152 -74 49 -1 47 -12 -17 -151 l-63 -134 -3 -430 c-2 -286 0 -442 8
-467 6 -20 23 -48 39 -61 29 -24 29 -24 33 -159 3 -126 5 -137 30 -175 16 -24
44 -49 70 -62 41 -19 61 -21 258 -21 197 0 217 2 258 21 26 13 54 38 70 62 25
38 27 49 30 169 l4 128 337 0 c210 0 349 4 368 10 28 10 53 45 53 74 0 7 -9
25 -21 40 l-20 26 -685 0 -684 0 0 403 1 402 73 155 73 155 1354 3 1354 2 75
-157 75 -158 0 -400 0 -400 -682 -3 -682 -2 -20 -26 c-36 -46 -23 -94 30 -113
21 -7 148 -11 365 -11 l334 0 0 -102 c0 -120 10 -165 47 -209 52 -62 84 -69
316 -69 222 0 255 6 305 53 47 44 56 74 60 215 4 117 7 134 23 143 10 5 27 24
36 42 16 29 18 71 18 472 l0 440 -67 142 -66 142 51 11 c147 31 242 149 242
300 0 124 -62 222 -173 277 -55 27 -64 28 -237 32 l-180 3 -85 176 c-96 198
-140 256 -222 293 l-53 24 -835 2 c-620 1 -849 -1 -890 -10z m1733 -160 c15
-10 39 -37 54 -60 22 -35 353 -722 353 -733 0 -2 -574 -4 -1275 -4 -761 0
-1275 4 -1275 9 0 16 320 684 351 732 27 43 53 61 104 72 11 3 389 4 840 3
768 -1 823 -2 848 -19z m-2173 -484 c0 -5 -32 -77 -72 -162 l-73 -153 -57 5
c-105 9 -158 63 -158 160 0 51 4 61 36 97 20 22 50 44 68 49 38 11 256 14 256
4z m2876 -12 c60 -27 89 -73 89 -141 0 -42 -6 -63 -24 -89 -29 -41 -91 -70
-149 -71 l-42 0 -75 156 c-41 87 -75 159 -75 160 0 2 53 4 118 4 92 0 126 -4
158 -19z m-2576 -1824 c0 -67 -4 -107 -12 -115 -17 -17 -379 -17 -396 0 -8 8
-12 48 -12 115 l0 103 210 0 210 0 0 -103z m2430 7 c0 -143 15 -134 -215 -134
-230 0 -215 -9 -215 134 l0 96 215 0 215 0 0 -96z"/>
<path d="M2291 1409 c-89 -17 -183 -96 -224 -188 -30 -69 -29 -170 4 -241 55
-120 143 -181 269 -188 101 -5 172 21 240 88 67 68 93 140 88 240 -9 145 -93
248 -235 285 -63 16 -77 17 -142 4z m150 -165 c73 -37 103 -156 57 -224 -51
-75 -136 -101 -214 -64 -66 31 -103 113 -84 184 28 106 143 155 241 104z"/>
<path d="M4177 1410 c-94 -24 -173 -90 -216 -180 -34 -72 -36 -181 -4 -251 50
-110 148 -179 269 -187 94 -6 158 15 224 75 129 116 146 298 40 431 -68 87
-209 137 -313 112z m158 -170 c17 -10 41 -38 54 -60 60 -108 -19 -240 -143
-240 -147 0 -220 176 -114 277 59 56 136 64 203 23z"/>
<path d="M2903 1273 c-50 -10 -70 -86 -33 -123 19 -19 33 -20 434 -20 l415 0
20 26 c27 35 26 57 -3 91 l-24 28 -394 1 c-216 1 -403 0 -415 -3z"/>
<path d="M2893 930 c-44 -18 -57 -86 -23 -120 19 -19 33 -20 434 -20 l415 0
20 26 c28 36 26 60 -8 95 l-29 29 -394 -1 c-216 0 -403 -4 -415 -9z"/>
</g>
</svg>
