<?xml version="1.0" standalone="no"?>
<!DOCTYPE svg PUBLIC "-//W3C//DTD SVG 20010904//EN"
 "http://www.w3.org/TR/2001/REC-SVG-20010904/DTD/svg10.dtd">
<svg version="1.0" xmlns="http://www.w3.org/2000/svg"
 width="512.000000pt" height="512.000000pt" viewBox="0 0 512.000000 512.000000"
 preserveAspectRatio="xMidYMid meet">

<g transform="translate(0.000000,512.000000) scale(0.100000,-0.100000)"
fill="#000000" stroke="none">
<path d="M815 4866 c-37 -17 -70 -52 -84 -89 -22 -58 -25 -57 150 -57 l162 0
-7 33 c-7 37 -31 73 -68 100 -34 25 -113 32 -153 13z"/>
<path d="M2575 4866 c-37 -17 -70 -52 -84 -89 -22 -58 -25 -57 150 -57 l162 0
-7 33 c-7 37 -31 73 -68 100 -34 25 -113 32 -153 13z"/>
<path d="M265 4535 c-21 -20 -25 -34 -25 -80 l0 -55 640 0 640 0 0 55 c0 46
-4 60 -25 80 l-24 25 -591 0 -591 0 -24 -25z"/>
<path d="M2025 4535 c-21 -20 -25 -34 -25 -80 l0 -55 640 0 640 0 0 55 c0 46
-4 60 -25 80 l-24 25 -591 0 -591 0 -24 -25z"/>
<path d="M3955 4320 l80 -80 285 0 285 0 80 80 80 80 -445 0 -445 0 80 -80z"/>
<path d="M240 4024 c0 -141 4 -231 12 -258 16 -55 99 -138 154 -154 30 -9 164
-12 476 -12 501 0 499 0 571 80 24 26 49 66 55 88 8 25 12 117 12 256 l0 216
-640 0 -640 0 0 -216z"/>
<path d="M2000 4024 c0 -141 4 -231 12 -258 16 -55 99 -138 154 -154 30 -9
164 -12 476 -12 501 0 499 0 571 80 24 26 49 66 55 88 8 25 12 117 12 256 l0
216 -640 0 -640 0 0 -216z"/>
<path d="M3955 4000 l80 -80 285 0 285 0 80 80 80 80 -445 0 -445 0 80 -80z"/>
<path d="M3955 3680 l80 -80 285 0 285 0 80 80 80 80 -445 0 -445 0 80 -80z"/>
<path d="M560 3360 l0 -80 320 0 320 0 0 80 0 80 -320 0 -320 0 0 -80z"/>
<path d="M2320 3360 l0 -80 320 0 320 0 0 80 0 80 -320 0 -320 0 0 -80z"/>
<path d="M3955 3360 l80 -80 285 0 285 0 80 80 80 80 -445 0 -445 0 80 -80z"/>
<path d="M240 2960 l0 -160 622 0 623 0 -160 160 -160 160 -462 0 -463 0 0
-160z"/>
<path d="M1950 2566 c373 -373 564 -557 583 -561 15 -4 39 -4 55 0 18 4 209
188 582 561 l555 554 -1165 0 -1165 0 555 -554z"/>
<path d="M3795 2960 l-160 -160 623 0 622 0 0 160 0 160 -463 0 -462 0 -160
-160z"/>
<path d="M560 1440 l0 -1200 80 0 80 0 0 1200 0 1200 -80 0 -80 0 0 -1200z"/>
<path d="M4400 1440 l0 -1200 80 0 80 0 0 1200 0 1200 -80 0 -80 0 0 -1200z"/>
<path d="M880 1280 l0 -80 1680 0 1680 0 0 80 0 80 -1680 0 -1680 0 0 -80z"/>
</g>
</svg>
